# xmcd
#
# Track frame offsets:
#	150
#	14050
#	31646
#	47348
#	62325
#	81222
#	99226
#	114896
#	131688
#	148726
#	166751
#
# Disc length: 2506 seconds
#
# Revision: 29
# Processed by: cddbd v1.5.2PL0 Copyright (c) Steve Scherf et al.
# Submitted via: EasyCDDAExtractor 15.3.0.1
#
DISCID=7d09c80b
DTITLE=Laura Pausini - Escucha
DYEAR=2004
DGENRE=Latin
TTITLE0=Mi Perspectiva
TTITLE1=Viveme
TTITLE2=Escucha Atento
TTITLE3=Tu Nombre En Mayusculas
TTITLE4=Bendecida Pasion
TTITLE5=Como Si No Nos Hubieramos Amado
TTITLE6=Tan Importante
TTITLE7=Hablame
TTITLE8=Donde El Aire Es Ceniza
TTITLE9=Amar Completamente
TTITLE10=Me Abandono A Ti
EXTD=2004 WARENER MUSIC ITALIA S.R.L5050467500723 YEAR: 2004 ID3G:  80
EXTT0=
EXTT1=
EXTT2=
EXTT3=
EXTT4=
EXTT5=
EXTT6=
EXTT7=
EXTT8=
EXTT9=
EXTT10=
PLAYORDER=
